<?xml version="1.0" encoding="iso-8859-1"?>
<!-- Generator: Adobe Illustrator 22.1.0, SVG Export Plug-In . SVG Version: 6.00 Build 0)  -->
<svg version="1.1" id="&#xB808;&#xC774;&#xC5B4;_1" xmlns="http://www.w3.org/2000/svg" xmlns:xlink="http://www.w3.org/1999/xlink"
	 x="0px" y="0px" viewBox="0 0 111.414 33.376" style="enable-background:new 0 0 111.414 33.376;" xml:space="preserve">
<g id="Group_72" transform="translate(0)">
	<g id="Group_69" transform="translate(41.089 9.17)">
		<path id="Path_49" style="fill:#212121;" d="M9.384,7.3c0.476-0.224,0.905-0.537,1.262-0.924c0.584-0.681,0.888-1.557,0.853-2.453
			c0.013-0.807-0.229-1.597-0.693-2.257C9.841,0.482,8.345-0.139,6.825,0.013H3.786v1.795h2.168c0.723-0.032,1.446,0.07,2.133,0.3
			c0.846,0.337,1.368,1.193,1.28,2.1c0.084,0.889-0.39,1.738-1.191,2.133C7.501,6.62,6.773,6.747,6.043,6.714H3.8V8.42h2.6
			c0.744-0.03,1.486,0.085,2.186,0.338c0.987,0.342,1.621,1.304,1.546,2.346c0.017,0.623-0.17,1.235-0.533,1.742
			c-0.704,0.823-1.767,1.248-2.844,1.137H2.1V0H0v15.817h6.718c1.735,0.149,3.438-0.537,4.585-1.848
			c0.629-0.786,0.968-1.765,0.96-2.772c0.058-1.06-0.329-2.097-1.066-2.861C10.658,7.888,10.044,7.537,9.384,7.3z"/>
		<path id="Path_50" style="fill:#212121;" d="M18.06,13.684l-3.092-9.4H12.76l4.265,11.872c-0.107,0.249-0.267,0.658-0.48,1.173
			c-0.231,0.533-0.355,0.818-0.391,0.889c-0.104,0.176-0.251,0.323-0.427,0.427c-0.235,0.14-0.509,0.203-0.782,0.178
			c-0.131-0.005-0.261-0.017-0.391-0.036c-0.248-0.039-0.491-0.098-0.729-0.178v1.756c0.213,0.053,0.391,0.089,0.551,0.124
			c0.206,0.025,0.414,0.037,0.622,0.036c0.899,0.094,1.785-0.266,2.364-0.96c0.951-1.719,1.742-3.521,2.364-5.385
			c0.48-1.244,1.066-2.861,1.759-4.852c0.942-2.63,1.546-4.318,1.813-5.065h-2.15L18.06,13.684z"/>
		<path id="Path_51" style="fill:#212121;" d="M28.027,1.066h-1.955v3.217h-1.919l-0.516,1.583h2.417v7.642
			c-0.027,0.639,0.14,1.271,0.48,1.813c0.464,0.522,1.155,0.781,1.848,0.693c0.284,0,0.533-0.018,0.782-0.036
			c0.235-0.027,0.467-0.074,0.693-0.142v-1.547c-0.124,0.019-0.248,0.031-0.373,0.036h-0.3c-0.255,0.022-0.512-0.02-0.747-0.124
			c-0.282-0.163-0.442-0.476-0.409-0.8V5.882h1.848V4.301h-1.849V1.066z"/>
		<path id="Path_52" style="fill:#212121;" d="M40.911,8.139C40.8,7.412,40.54,6.716,40.147,6.095
			c-0.438-0.643-1.04-1.158-1.742-1.493c-0.731-0.378-1.543-0.573-2.366-0.568c-1.501-0.048-2.942,0.594-3.91,1.742
			c-1.034,1.271-1.566,2.877-1.493,4.514c-0.098,1.603,0.438,3.18,1.493,4.39c0.928,1.017,2.249,1.587,3.626,1.564
			c0.527,0.009,1.053-0.05,1.564-0.178c0.816-0.177,1.566-0.577,2.168-1.155c0.378-0.376,0.696-0.808,0.942-1.28
			c0.255-0.438,0.424-0.921,0.5-1.422h-1.9c-0.132,0.498-0.375,0.96-0.711,1.351c-0.609,0.678-1.489,1.049-2.4,1.013
			c-0.923,0.072-1.82-0.33-2.382-1.066c-0.551-0.838-0.836-1.823-0.818-2.826h8.388C41.103,9.83,41.038,8.98,40.911,8.139z
			 M32.736,9.139c0.003-0.905,0.338-1.778,0.942-2.453c0.567-0.626,1.377-0.977,2.222-0.96c1.075-0.088,2.103,0.459,2.63,1.4
			c0.317,0.625,0.504,1.308,0.551,2.008L32.736,9.139z"/>
		<path id="Path_53" style="fill:#212121;" d="M51.398,4.354l-2.364-0.053L46.35,8.353l-2.648-4.052h-2.506l3.857,5.616l-4.07,5.9
			h2.453l2.79-4.316l2.861,4.319h2.47l-4.052-5.9L51.398,4.354z"/>
		<rect id="Rectangle_115" x="52.535" y="13.471" style="fill:#212121;" width="2.257" height="2.346"/>
		<rect id="Rectangle_116" x="56.249" y="4.354" style="fill:#212121;" width="1.973" height="11.481"/>
		<rect id="Rectangle_117" x="56.249" y="0" style="fill:#212121;" width="1.973" height="2.204"/>
		<path id="Path_54" style="fill:#212121;" d="M68.796,5.438c-0.995-0.986-2.349-1.525-3.75-1.493
			c-1.506-0.066-2.957,0.571-3.928,1.724c-1.029,1.313-1.547,2.955-1.457,4.621c-0.084,1.561,0.409,3.098,1.386,4.319
			c0.942,1.078,2.32,1.672,3.75,1.617c1.607,0.127,3.172-0.552,4.177-1.813c0.943-1.344,1.417-2.96,1.351-4.6
			C70.437,8.207,69.885,6.625,68.796,5.438z M67.588,13.116c-0.486,0.98-1.524,1.559-2.613,1.457
			c-1.005,0.075-1.974-0.392-2.541-1.226c-0.562-0.918-0.84-1.981-0.8-3.057c-0.034-1.142,0.243-2.272,0.8-3.27
			c0.526-0.901,1.518-1.425,2.559-1.351c1.17-0.087,2.275,0.546,2.79,1.6c0.372,0.825,0.549,1.725,0.515,2.63
			C68.303,11.01,68.061,12.109,67.588,13.116L67.588,13.116z"/>
	</g>
	<g id="Group_70">
		<path id="Path_55" style="fill:#69D2C0;" d="M16.688,1.155L27.671,5.7l4.55,10.983l-4.55,10.983l-10.983,4.55L5.7,27.671
			L1.155,16.688L5.7,5.7l10.983-4.55 M16.683-0.005L4.887,4.887L0,16.688l4.887,11.8l11.8,4.887l11.8-4.887l4.887-11.8l-4.887-11.8
			L16.688,0L16.683-0.005z"/>
	</g>
	<g id="Group_71" transform="translate(2.008 2.008)">
		<path id="Path_56" style="fill:#69D2C0;" d="M25.059,4.3L14.68,0L4.3,4.3L0,14.68l4.3,10.379l10.379,4.3l10.379-4.3l4.3-10.379
			L25.059,4.3z M18.145,23.726h-7.8l-1.333-1.4V7.251H8.088L10.2,4.5l2.115,2.755h-0.924v14.089h5.7l1.795-1.884L16.9,17.577h-2.4
			l-1.919-2.31h4.354l1.795-1.99l-1.795-1.884H12.6V9.366h5.545l3.7,3.91l-2.559,3.092l2.914,3.093L18.145,23.726z"/>
	</g>
</g>
</svg>
