<?xml version="1.0" encoding="utf-8"?>
<!-- Generator: Adobe Illustrator 22.0.1, SVG Export Plug-In . SVG Version: 6.00 Build 0)  -->
<svg version="1.1" id="图层_1" xmlns="http://www.w3.org/2000/svg" xmlns:xlink="http://www.w3.org/1999/xlink" x="0px" y="0px"
	 viewBox="0 0 180 60" style="enable-background:new 0 0 180 60;" xml:space="preserve">
<style type="text/css">
	.st0 {fill:#cf1a1b;}
</style>
<g>
	<path class="st0" d="M18,9.5L1.8,38.7c-0.9,1.7,0.3,3.8,2.3,3.8h3.5c1,0,1.8-0.5,2.3-1.4L26.1,12c0.9-1.7-0.3-3.8-2.3-3.8h-3.5
		C19.3,8.2,18.5,8.7,18,9.5z"/>
	<path class="st0" d="M72.8,9.5l-3.3,6c-1.3,2.8,2.1,5.8,5,3.7l6.7-6.4c1.4-1.3,1-4.4-1.9-4.6h-4.2C74.1,8.2,73.2,8.7,72.8,9.5z"/>
	<path class="st0" d="M59.7,8.2h-3.5c-0.9,0-1.8,0.5-2.3,1.4L48.6,19c0,0-0.1,0.1-0.1,0.1c-0.4,0.8-1.2,1.3-2.2,1.3
		c-1.2,0-2-0.8-2.3-1.9c-0.2-0.6-1.8-6.1-2.4-8.3c-0.4-2.2-3.5-3-4.8-0.8c-4.5,8.1-16.2,29.2-16.2,29.2c-0.9,1.7,0.3,3.8,2.3,3.8
		h3.5c1,0,1.8-0.5,2.3-1.4c0,0,3.9-7,5.1-9.2c1.1-1.9,3.9-1.8,4.8,0.6c1,3.3,1.5,5,2.3,8c0.6,2.4,3.6,2.8,4.8,0.7
		C49.8,33.9,62,12,62,12C62.9,10.3,61.7,8.2,59.7,8.2z"/>
	<path class="st0" d="M59,42.6h7.5c2.7-0.1,3.3-3.1,2-4.4c-1.8-2.2-2.5-3.2-4.3-5.5c-1.3-1.7-3.7-1.2-4.5,0.4l-3.1,5.6
		C55.7,40.5,57,42.6,59,42.6z"/>
	<g>
		<path class="st0" d="M134,21.9h-0.5v0.5v4.3v0.5h0.5c0.3,0,0.5-0.2,0.5-0.5v-4.3C134.5,22.2,134.3,21.9,134,21.9z"/>
		<path class="st0" d="M121.6,21.9h-0.5c-0.1,0-0.3,0.1-0.3,0.3V27c0,0.1,0.1,0.3,0.3,0.3h0.5c0.1,0,0.3-0.1,0.3-0.3v-4.8
			C121.9,22,121.8,21.9,121.6,21.9z"/>
		<path class="st0" d="M102.2,24.9h-0.4v2.3h0.4c0.2,0,0.4-0.2,0.4-0.4v-1.4C102.7,25.1,102.5,24.9,102.2,24.9z"/>
		<path class="st0" d="M102.2,22h-0.4v2.3h0.4c0.2,0,0.4-0.2,0.4-0.4v-1.4C102.7,22.2,102.5,22,102.2,22z"/>
		<path class="st0" d="M149.7,21.9h-0.5c-0.1,0-0.3,0.1-0.3,0.3V27c0,0.1,0.1,0.3,0.3,0.3h0.5c0.1,0,0.3-0.1,0.3-0.3v-4.8
			C150,22,149.9,21.9,149.7,21.9z"/>
		<path class="st0" d="M171,23.6L159.7,3.8c-1.1-2-1.6-3-4.6-3c-14.4,0-31.3,0-45.2,0c-3.6,0-6.6,2-8.3,3.6L77,28.1
			c-1.7,1.5-2.3,4.5-0.4,6.9L86.9,48c0.6,0.8,1.5,1.4,2.5,1.9l22.3,6.7c0,0,2.2,0.7,4.7,0.7c1.4,0,3-0.6,4.2-1.3l47.7-25.4
			C171.3,29,172.4,26.1,171,23.6z M94.7,27.8h-0.3H92v-6.5h0.4c0.2,0,0.4,0.2,0.4,0.4v5.4h1.6c0.2,0,0.3,0.1,0.3,0.3V27.8z
			 M98.6,27.8l-0.7-4.5l-0.7,4.5h-0.9l1.2-6.5h0.4c0.4,0,0.4,0.1,0.5,0.4l1.2,6H98.6z M103.5,24.1C103.5,24.1,103.5,24.1,103.5,24.1
			C103.5,24.1,103.5,24.1,103.5,24.1c0,0.1,0,0.2-0.1,0.3c0,0,0,0,0,0c0,0,0,0,0,0c-0.1,0.1-0.2,0.2-0.4,0.3c0,0,0,0-0.1,0
			c0,0,0,0,0.1,0c0.2,0,0.4,0.2,0.4,0.5c0,0,0,0,0,0c0,0,0,0,0,0V27c0,0.4-0.3,0.8-0.8,0.8H101v-6.5h1.7c0.5,0,0.9,0.4,0.9,0.9V24.1
			z M107.5,22.4v0.2V23h-0.4c-0.2,0-0.4-0.2-0.4-0.4v-0.3c0-0.1,0-0.2-0.1-0.3c-0.1-0.1-0.2-0.1-0.3-0.1c-0.1,0-0.2,0-0.3,0.1
			c-0.1,0.1-0.1,0.2-0.1,0.3v0.6c0,0.1,0,0.2,0.1,0.2c0,0.1,0.1,0.2,0.1,0.3c0,0.1,0.1,0.2,0.2,0.3l1,1.5c0.1,0.1,0.1,0.2,0.2,0.3
			c0,0.1,0.1,0.2,0.1,0.3c0,0.1,0.1,0.2,0.1,0.3V27c0,0.2-0.1,0.4-0.3,0.6c-0.2,0.2-0.4,0.2-0.7,0.2H106c-0.3,0-0.5-0.1-0.7-0.2
			c-0.2-0.2-0.3-0.3-0.3-0.6v-0.7v-0.1v-0.4h0.4c0.2,0,0.4,0.2,0.4,0.4v0.7c0,0.1,0,0.2,0.1,0.2c0.1,0.1,0.2,0.1,0.3,0.1
			c0.1,0,0.2,0,0.3-0.1c0.1-0.1,0.1-0.1,0.1-0.2v-0.7c0-0.1,0-0.2-0.1-0.2c0-0.1-0.1-0.2-0.1-0.3c0-0.1-0.1-0.2-0.2-0.3l-1-1.5
			c-0.1-0.1-0.1-0.2-0.2-0.3c0-0.1-0.1-0.2-0.1-0.3c0-0.1-0.1-0.2-0.1-0.3v-0.7c0-0.1,0-0.2,0.1-0.3c0.1-0.1,0.1-0.2,0.2-0.3
			c0.1-0.1,0.2-0.1,0.3-0.2c0.1,0,0.3-0.1,0.4-0.1h0.5c0.1,0,0.3,0,0.4,0.1c0.1,0,0.2,0.1,0.3,0.2c0.1,0.1,0.2,0.2,0.2,0.3
			c0.1,0.1,0.1,0.2,0.1,0.3V22.4z M118.5,22h-1.9v2.2h1.2c0.2,0,0.3,0.1,0.3,0.3v0.3h-1.5v3h-0.9v-6.5h2.4c0.2,0,0.3,0.1,0.3,0.3V22
			z M122.7,27.4c0,0.2-0.2,0.4-0.4,0.4h-1.9c-0.2,0-0.4-0.2-0.4-0.4v-5.6c0-0.2,0.2-0.4,0.4-0.4h1.9c0.2,0,0.4,0.2,0.4,0.4V27.4z
			 M127,27.4c0,0.2-0.2,0.4-0.4,0.4h-1.9c-0.2,0-0.4-0.2-0.4-0.4v-6h0.4c0.2,0,0.4,0.2,0.4,0.4V27c0,0.1,0.1,0.3,0.3,0.3h0.5
			c0.1,0,0.3-0.1,0.3-0.3v-5.6h0.4c0.2,0,0.4,0.2,0.4,0.4V27.4z M131.2,27.8h-0.9l-1-3.6v3.6h-0.4c-0.2,0-0.4-0.2-0.4-0.4v-6h0.9
			l1,3.7v-3.7h0.4c0.2,0,0.4,0.2,0.4,0.4V27.8z M135.4,26.8c0,0.5-0.4,1-1,1h-1.7v-6.5h1.8c0.5,0,1,0.4,1,1V26.8z M139.3,27.8
			l-0.7-4.5l-0.7,4.5h-0.9l1.2-6.5h0.4c0.4,0,0.4,0.1,0.5,0.4l1.2,6H139.3z M144.3,22h-1.2v5.8c0,0-0.6,0-0.9,0V22H141v-0.7h3
			c0.2,0,0.3,0.1,0.3,0.3V22z M146.6,27.8h-0.9v-6.5h0.4c0.2,0,0.4,0.2,0.4,0.4V27.8z M150.8,27.4c0,0.2-0.2,0.4-0.4,0.4h-1.9
			c-0.2,0-0.4-0.2-0.4-0.4v-5.6c0-0.2,0.2-0.4,0.4-0.4h1.9c0.2,0,0.4,0.2,0.4,0.4V27.4z M155,27.8h-0.9l-1-3.6v3.6h-0.4
			c-0.2,0-0.4-0.2-0.4-0.4v-6h0.9l1,3.7v-3.7h0.4c0.2,0,0.4,0.2,0.4,0.4V27.8z"/>
	</g>
</g>
</svg>
