<?xml version="1.0" encoding="iso-8859-1"?>
<!-- Generator: Adobe Illustrator 22.1.0, SVG Export Plug-In . SVG Version: 6.00 Build 0)  -->
<svg version="1.1" id="&#xB808;&#xC774;&#xC5B4;_1" xmlns="http://www.w3.org/2000/svg" xmlns:xlink="http://www.w3.org/1999/xlink"
	 x="0px" y="0px" viewBox="0 0 125 28" style="enable-background:new 0 0 125 28;" xml:space="preserve">
<g>
	<path style="fill:#FFCD1C;" d="M19.447,19.807c0,1.149-0.944,2.08-2.108,2.08c-1.165,0-2.109-0.931-2.109-2.08
		c0-1.15,0.944-2.08,2.109-2.08C18.503,17.727,19.447,18.657,19.447,19.807 M18.855,7.935l-9.571,3.453l-8.882-0.003l9.566-3.45
		L18.855,7.935z M18.855,14.713l-9.571,3.452l-8.882-0.002l9.566-3.449L18.855,14.713z"/>
	<path style="fill:#3086FF;" d="M0.402,14.713h18.452v-3.325H0.402V14.713z M0.402,21.491h13.136v-3.327H0.402V21.491z M0.402,7.935
		h18.452V4.608H0.402V7.935z M27.284,21.465V4.518h3.713v13.924h7.569v3.023H27.284z M48.155,18.014
		c0.476-0.603,0.714-1.476,0.714-2.618c0-1.143-0.238-2.02-0.714-2.63c-0.476-0.611-1.158-0.917-2.047-0.917
		s-1.579,0.318-2.07,0.952c-0.493,0.635-0.739,1.516-0.739,2.642c0,1.127,0.242,1.988,0.727,2.583
		c0.483,0.595,1.178,0.892,2.082,0.892C46.997,18.918,47.679,18.617,48.155,18.014z M52.415,9.397v12.068h-3.546V19.68
		c-0.367,0.621-0.904,1.125-1.547,1.452c-0.666,0.349-1.42,0.523-2.261,0.523c-1.047,0-1.972-0.253-2.773-0.761
		s-1.428-1.234-1.88-2.178c-0.453-0.944-0.679-2.035-0.679-3.273c0-1.238,0.226-2.34,0.679-3.308
		c0.452-0.968,1.083-1.718,1.892-2.25c0.81-0.531,1.73-0.797,2.761-0.797c0.84,0,1.595,0.183,2.261,0.547
		c0.641,0.341,1.176,0.852,1.547,1.476V9.398L52.415,9.397L52.415,9.397z M67.054,14.158v7.307H63.46v-7.14
		c0-0.842-0.155-1.456-0.465-1.845s-0.797-0.583-1.463-0.583c-0.794,0-1.429,0.254-1.905,0.761c-0.476,0.508-0.714,1.19-0.714,2.047
		v6.76h-3.594v-8.616c0-1.286-0.063-2.436-0.19-3.452h3.38l0.238,1.904c0.402-0.688,0.982-1.255,1.678-1.642
		c0.69-0.38,1.471-0.571,2.344-0.571C65.625,9.088,67.054,10.778,67.054,14.158 M77.8,17.526c0.5-0.58,0.75-1.384,0.75-2.416
		c0-1.015-0.246-1.813-0.738-2.392c-0.492-0.58-1.182-0.869-2.071-0.869s-1.587,0.29-2.095,0.869
		c-0.508,0.58-0.761,1.377-0.761,2.392c0,1.016,0.253,1.817,0.761,2.404s1.206,0.88,2.095,0.88
		C76.614,18.394,77.301,18.105,77.8,17.526z M82.12,9.397v11.521c0,1.92-0.556,3.38-1.666,4.38c-1.111,1-2.73,1.5-4.856,1.5
		c-1.92,0-3.586-0.373-4.998-1.12l0.547-2.665c1.46,0.73,2.904,1.095,4.332,1.095c1.032,0,1.801-0.242,2.309-0.726
		c0.508-0.484,0.762-1.218,0.762-2.202v-2.094c-0.381,0.587-0.913,1.075-1.595,1.464c-0.689,0.39-1.469,0.592-2.261,0.583
		c-1.048,0-1.976-0.25-2.785-0.75c-0.81-0.5-1.444-1.206-1.904-2.118c-0.46-0.913-0.69-1.964-0.69-3.154s0.23-2.241,0.69-3.154
		c0.46-0.912,1.095-1.618,1.904-2.118c0.81-0.5,1.737-0.75,2.785-0.75c0.84,0,1.602,0.183,2.285,0.547
		c0.682,0.366,1.206,0.857,1.57,1.476V9.398L82.12,9.397L82.12,9.397z M96.862,4.518h3.499v16.947H97.6l-8.45-10.806v10.806h-3.475
		V4.518h2.737l8.45,10.782V4.518z M106.862,12.206c-0.42,0.397-0.695,0.976-0.822,1.738h4.785c-0.19-1.555-0.96-2.333-2.31-2.333
		C107.833,11.611,107.282,11.81,106.862,12.206z M113.919,15.729h-7.95c0.063,1.127,0.357,1.948,0.88,2.463
		c0.524,0.516,1.302,0.774,2.333,0.774c0.632-0.002,1.259-0.107,1.857-0.31c0.617-0.205,1.196-0.51,1.714-0.904l0.952,2.428
		c-0.572,0.46-1.282,0.821-2.13,1.083c-0.829,0.259-1.692,0.391-2.56,0.392c-2.03,0-3.625-0.559-4.783-1.678
		c-1.159-1.118-1.738-2.645-1.738-4.581c0-1.222,0.25-2.313,0.75-3.273c0.473-0.932,1.204-1.709,2.106-2.238
		c0.905-0.531,1.928-0.797,3.07-0.797c1.698,0,3.04,0.552,4.023,1.654c0.984,1.103,1.476,2.59,1.476,4.463L113.919,15.729
		L113.919,15.729z M120.756,12.087v4.69c0,0.665,0.174,1.153,0.524,1.463c0.348,0.31,0.8,0.464,1.356,0.464
		c0.35,0,0.746-0.055,1.19-0.167v2.785c-0.57,0.222-1.261,0.334-2.07,0.334c-1.492,0-2.63-0.42-3.416-1.262
		c-0.786-0.84-1.178-2.023-1.178-3.547v-4.759h-2.285v-2.69h2.285V6.565l3.594-1.166v3.998h3.07v2.69
		C123.826,12.087,120.756,12.087,120.756,12.087z"/>
</g>
</svg>
