<?xml version="1.0" encoding="iso-8859-1"?>
<!-- Generator: Adobe Illustrator 22.1.0, SVG Export Plug-In . SVG Version: 6.00 Build 0)  -->
<svg version="1.1" id="&#xB808;&#xC774;&#xC5B4;_1" xmlns="http://www.w3.org/2000/svg" xmlns:xlink="http://www.w3.org/1999/xlink"
	 x="0px" y="0px" viewBox="0 0 270 45" style="enable-background:new 0 0 270 45;" xml:space="preserve">
<g transform="translate(0 .589)">
	<path style="fill:#013878;" d="M260.26,32.452h9.222v3.94h-14.048V16.65h4.827L260.26,32.452L260.26,32.452z M237.05,36.392V16.65
		h4.827v19.743L237.05,36.392L237.05,36.392z M214.475,24.592h-1.76v-4.05h1.708c0.866,0,1.527,0.172,1.967,0.511
		c0.401,0.31,0.596,0.79,0.596,1.467c0,0.652-0.207,1.142-0.625,1.505C215.92,24.401,215.286,24.592,214.475,24.592 M221.925,30.902
		c-0.72-1.352-1.318-2.297-1.822-2.885c-0.273-0.322-0.578-0.615-0.911-0.875c0.754-0.436,1.36-0.972,1.805-1.602
		c0.625-0.875,0.94-1.915,0.94-3.087c0-1.72-0.634-3.135-1.883-4.21c-1.228-1.058-2.824-1.594-4.747-1.594h-7.42v19.744h4.829
		v-7.857h0.754c0.483,0,0.89,0.111,1.25,0.341c0.389,0.25,0.81,0.692,1.252,1.312c0.486,0.685,1.25,2.012,2.276,3.944
		c0.497,0.933,0.884,1.59,1.175,2.01l0.173,0.25h5.468l-0.582-0.876c-0.547-0.827-1.381-2.335-2.557-4.616 M188.882,24.485V16.65
		h4.83v19.744h-4.83v-7.858h-8.703v7.858h-4.83V16.649h4.83v7.836C180.179,24.485,188.882,24.485,188.882,24.485z M144.257,20.593
		V16.65h18.32v3.944h-6.745v15.8h-4.83v-15.8h-6.745V20.593z M126.571,36.393V16.65h4.83v19.743
		C131.401,36.393,126.571,36.393,126.571,36.393z M102.217,23.67l5.972-7.021h4.128v19.742h-4.83V24.216l-4.75,5.664h-1.068
		l-4.75-5.664v12.176h-4.827V16.65h4.154C96.246,16.65,102.217,23.67,102.217,23.67z M68.777,39.845h-6.225
		c-0.184,0-0.334-0.15-0.334-0.334c0-0.008,0-0.015,0.001-0.023l0.616-8.411c0.014-0.184,0.175-0.322,0.359-0.307
		c0.102,0.008,0.194,0.062,0.251,0.146l5.61,8.412c0.102,0.153,0.06,0.36-0.094,0.462C68.907,39.826,68.843,39.845,68.777,39.845
		L68.777,39.845z M60.024,38.349L50.52,24.82c-0.105-0.151-0.068-0.358,0.083-0.464c0.078-0.055,0.176-0.073,0.269-0.05l5.902,1.441
		l3.238,0.79c0.17,0.045,0.509,0.138,0.611,0.206c0.095,0.063,0.214,0.224,0.282,0.322l0.264,0.42l-0.002,0.002
		c0,0,0.132,0.223,0.157,0.345c0.028,0.122,0.03,0.425,0.03,0.425l0.002-0.003l-0.727,9.928c-0.013,0.183-0.172,0.322-0.355,0.309
		C60.173,38.484,60.082,38.432,60.024,38.349L60.024,38.349z M58.382,39.845h-8.583c-0.21,0-0.415-0.046-0.605-0.132l-9.935-4.51
		c-0.167-0.075-0.242-0.272-0.166-0.439c0.012-0.028,0.029-0.054,0.048-0.077l8.562-10.226c0.118-0.141,0.328-0.16,0.469-0.042
		c0.022,0.019,0.042,0.04,0.059,0.064l10.424,14.838c0.105,0.151,0.069,0.358-0.082,0.464C58.517,39.824,58.45,39.845,58.382,39.845
		z M44.113,39.845h-8.846c-0.184,0-0.333-0.149-0.334-0.332c0-0.083,0.031-0.164,0.088-0.226l2.532-2.762
		c0.097-0.107,0.252-0.139,0.384-0.079l6.293,2.857C44.508,39.429,44.419,39.845,44.113,39.845z M32.084,39.845H21.278
		c-0.184,0-0.333-0.149-0.333-0.333c0-0.072,0.023-0.142,0.067-0.2l8.306-11.023c0.111-0.147,0.321-0.176,0.468-0.065
		c0.015,0.012,0.03,0.025,0.043,0.039l6.33,6.844c0.118,0.127,0.118,0.323,0.001,0.451l-3.829,4.178
		C32.268,39.805,32.178,39.845,32.084,39.845L32.084,39.845z M18.152,39.267l-3.64-8.311c-0.007-0.022-0.083-0.242-0.078-0.364
		c0.004-0.09,0.104-0.264,0.167-0.365l0.406-0.594c0.099-0.132,0.223-0.286,0.353-0.404c0.277-0.25,0.785-0.552,0.785-0.552v-0.005
		l8.885-5.394c0.138-0.083,0.316-0.056,0.423,0.065l2.82,3.205c0.08,0.09,0.085,0.225,0.011,0.321l-9.498,12.474
		c-0.124,0.163-0.356,0.195-0.518,0.071C18.217,39.376,18.177,39.325,18.152,39.267z M16.06,39.845H6.35
		c-0.184,0.001-0.334-0.147-0.335-0.331c-0.001-0.086,0.032-0.17,0.092-0.232l6.651-6.992c0.126-0.134,0.337-0.139,0.471-0.013
		c0.032,0.031,0.058,0.068,0.076,0.109l3.06,6.992c0.074,0.168-0.002,0.365-0.171,0.439C16.152,39.835,16.106,39.845,16.06,39.845
		L16.06,39.845z M18.454,24.561l6.192-9.107c0.194-0.286,0.643-0.123,0.607,0.221l-0.593,5.71c-0.011,0.104-0.07,0.197-0.16,0.25
		l-5.597,3.398c-0.306,0.186-0.65-0.175-0.45-0.472H18.454z M26.69,18.1l0.456-4.382c0.02-0.183,0.185-0.316,0.368-0.296
		c0.092,0.01,0.176,0.058,0.232,0.133l7.884,10.743c0.374,0.534,0.87,1.284,1.018,1.699c0.195,0.545,0.188,1.006,0.198,1.737
		c0,0.007,0.005,0.001,0.005,0.008l-0.113,4.677c-0.004,0.184-0.156,0.33-0.34,0.325c-0.091-0.002-0.176-0.041-0.238-0.107
		l-6.035-6.524V26.11l-3.722-4.228c-0.061-0.07-0.09-0.162-0.08-0.254C26.323,21.628,26.69,18.1,26.69,18.1z M38.531,27.789
		c0.005-0.05,0.101-1.078,0.307-1.591c0.306-0.761,0.791-1.79,0.791-1.79l-0.008,0.005l7.305-15.247
		c0.155-0.323,0.643-0.205,0.633,0.154l-0.347,13c-0.001,0.075-0.028,0.148-0.077,0.206l-8.117,9.693
		c-0.117,0.142-0.327,0.162-0.469,0.046c-0.08-0.066-0.125-0.164-0.121-0.268C38.428,31.997,38.531,27.789,38.531,27.789z
		 M49.284,7.693c0.009-0.339,0.458-0.449,0.624-0.155l9.268,16.493c0.09,0.16,0.034,0.363-0.127,0.454
		c-0.074,0.041-0.16,0.053-0.242,0.033l-3.668-0.896l-5.978-1.46c-0.153-0.037-0.259-0.176-0.254-0.333
		C48.907,21.829,49.284,7.693,49.284,7.693z M73.729,40.293L63.787,25.38L50.156,1.162c-0.307-0.545-0.922-1-1.759-0.947
		c-0.627,0.02-1.192,0.56-1.463,1.125l-9.106,19.436c-0.203,0.36-0.606,0.35-0.731,0.157L28.14,8.444
		c-0.321-0.44-0.763-0.749-1.462-0.75c-0.546,0-1.13,0.437-1.437,0.888l-13.536,19.94l-0.035,0.042L0.512,40.294
		c-0.46,0.486-0.657,1.274-0.393,1.89C0.385,42.8,0.991,43.199,1.662,43.2l70.702-0.006c0.62,0,1.364-0.335,1.656-0.88
		C74.312,41.768,74.073,40.809,73.729,40.293L73.729,40.293z"/>
</g>
</svg>
