<svg xmlns="http://www.w3.org/2000/svg" xmlns:xlink="http://www.w3.org/1999/xlink" viewBox="0 0 228.82 33.455">
  <defs>
    <style>
      .cls-1, .cls-4 {
        fill: none;
      }

      .cls-2 {
        clip-path: url(#clip-path);
      }

      .cls-3 {
        fill: #25aebd;
      }

      .cls-4 {
        stroke: #25aebd;
        stroke-miterlimit: 10;
        stroke-width: 0.2px;
      }
    </style>
    <clipPath id="clip-path">
      <path id="Clip_2" data-name="Clip 2" class="cls-1" d="M0,0H70.6V33.455H0Z" transform="translate(0 0.332)"/>
    </clipPath>
  </defs>
  <g id="Group_10" data-name="Group 10" transform="translate(0 -0.332)">
    <g id="Group_22_Copy" data-name="Group 22 Copy">
      <g id="Group_3" data-name="Group 3">
        <path id="Clip_2-2" data-name="Clip 2" class="cls-1" d="M0,0H70.6V33.455H0Z" transform="translate(0 0.332)"/>
        <g id="Group_3-2" data-name="Group 3" class="cls-2">
          <path id="Fill_1" data-name="Fill 1" class="cls-3" d="M54.977,33.457h-2.32V27.229l-4.179-1.143-1.486,1.143v6.226H44.7V22.747l-5.5-1.462L37.5,22.916v10.54H35.348V29.628L30.37,27.989l-2.7,1.75v3.717H25.514V27.239l-3.649-1.247-2.129,1.425v6.039h-2.3v-3.51l-3.281-1.5v-2.7L9.348,24.025,7.032,25.589v7.867H2.921A3,3,0,0,1,.773,32.7,2.86,2.86,0,0,1,0,30.6,26.947,26.947,0,0,1,2.774,18.686a30.657,30.657,0,0,1,7.565-9.725A35.907,35.907,0,0,1,21.559,2.4a40.461,40.461,0,0,1,27.48,0,35.907,35.907,0,0,1,11.22,6.557,30.657,30.657,0,0,1,7.565,9.725A26.947,26.947,0,0,1,70.6,30.6a2.631,2.631,0,0,1-2.921,2.86H63.061V29.291L60.5,28.485V25.85l-3.295-1.031-2.232,1.436v7.2ZM51.584,11.948a1.824,1.824,0,1,0,1.862,1.823A1.845,1.845,0,0,0,51.584,11.948Zm-32.705,0a1.824,1.824,0,1,0,1.862,1.823A1.845,1.845,0,0,0,18.879,11.948Z" transform="translate(0 0.332)"/>
        </g>
      </g>
    </g>
    <g id="Group_37" data-name="Group 37" transform="translate(82 17)">
      <g id="Group_36" data-name="Group 36" transform="translate(0 0.45)">
        <path id="Fill_4" data-name="Fill 4" class="cls-3" d="M0,15.388V0H1.7L6.162,9.117,10.628,0h1.695V15.388H10.628V3.195l-3.7,7.618H5.39L1.7,3.195V15.388Z" transform="translate(0.103 0.306)"/>
        <path id="Stroke_6" data-name="Stroke 6" class="cls-4" d="M0,15.388V0H1.7L6.162,9.117,10.628,0h1.695V15.388H10.628V3.195l-3.7,7.618H5.39L1.7,3.195V15.388Z" transform="translate(0.103 0.306)"/>
        <path id="Fill_8" data-name="Fill 8" class="cls-3" d="M5.412,15.8a5.413,5.413,0,0,1-2.9-.75A4.625,4.625,0,0,1,.717,13.03a6.625,6.625,0,0,1-.5-1.716A12.769,12.769,0,0,1,.022,9.661C.007,9.229,0,8.637,0,7.9s.007-1.328.022-1.76A12.736,12.736,0,0,1,.212,4.488a6.625,6.625,0,0,1,.5-1.716A4.633,4.633,0,0,1,2.51.75,5.413,5.413,0,0,1,5.412,0a5.418,5.418,0,0,1,2.9.75,4.639,4.639,0,0,1,1.793,2.022,6.625,6.625,0,0,1,.5,1.716A12.6,12.6,0,0,1,10.8,6.141c.014.433.022,1.025.022,1.76s-.007,1.328-.022,1.759a12.63,12.63,0,0,1-.191,1.653,6.625,6.625,0,0,1-.5,1.716,4.632,4.632,0,0,1-1.793,2.021A5.418,5.418,0,0,1,5.412,15.8Zm0-14.279a3.69,3.69,0,0,0-1.946.484A2.985,2.985,0,0,0,2.282,3.348a5.358,5.358,0,0,0-.409,1.44,12.547,12.547,0,0,0-.157,1.478c-.015.425-.023.975-.023,1.635s.008,1.211.023,1.635a12.547,12.547,0,0,0,.157,1.478,5.357,5.357,0,0,0,.409,1.44A2.994,2.994,0,0,0,3.466,13.8a3.7,3.7,0,0,0,1.946.483A3.687,3.687,0,0,0,7.357,13.8a3,3,0,0,0,1.185-1.342,5.4,5.4,0,0,0,.407-1.44,12.765,12.765,0,0,0,.158-1.478c.014-.417.021-.967.021-1.635s-.007-1.219-.021-1.635a12.765,12.765,0,0,0-.158-1.478,5.4,5.4,0,0,0-.407-1.44A2.994,2.994,0,0,0,7.357,2.006,3.679,3.679,0,0,0,5.412,1.522Z" transform="translate(22.472 0.099)"/>
        <path id="Stroke_10" data-name="Stroke 10" class="cls-4" d="M5.412,15.8a5.413,5.413,0,0,1-2.9-.75A4.625,4.625,0,0,1,.717,13.03a6.625,6.625,0,0,1-.5-1.716A12.769,12.769,0,0,1,.022,9.661C.007,9.229,0,8.637,0,7.9s.007-1.328.022-1.76A12.736,12.736,0,0,1,.212,4.488a6.625,6.625,0,0,1,.5-1.716A4.633,4.633,0,0,1,2.51.75,5.413,5.413,0,0,1,5.412,0a5.418,5.418,0,0,1,2.9.75,4.639,4.639,0,0,1,1.793,2.022,6.625,6.625,0,0,1,.5,1.716A12.6,12.6,0,0,1,10.8,6.141c.014.433.022,1.025.022,1.76s-.007,1.328-.022,1.759a12.63,12.63,0,0,1-.191,1.653,6.625,6.625,0,0,1-.5,1.716,4.632,4.632,0,0,1-1.793,2.021A5.418,5.418,0,0,1,5.412,15.8Zm0-14.279a3.69,3.69,0,0,0-1.946.484A2.985,2.985,0,0,0,2.282,3.348a5.358,5.358,0,0,0-.409,1.44,12.547,12.547,0,0,0-.157,1.478c-.015.425-.023.975-.023,1.635s.008,1.211.023,1.635a12.547,12.547,0,0,0,.157,1.478,5.357,5.357,0,0,0,.409,1.44A2.994,2.994,0,0,0,3.466,13.8a3.7,3.7,0,0,0,1.946.483A3.687,3.687,0,0,0,7.357,13.8a3,3,0,0,0,1.185-1.342,5.4,5.4,0,0,0,.407-1.44,12.765,12.765,0,0,0,.158-1.478c.014-.417.021-.967.021-1.635s-.007-1.219-.021-1.635a12.765,12.765,0,0,0-.158-1.478,5.4,5.4,0,0,0-.407-1.44A2.994,2.994,0,0,0,7.357,2.006,3.679,3.679,0,0,0,5.412,1.522Z" transform="translate(22.472 0.099)"/>
        <path id="Fill_12" data-name="Fill 12" class="cls-3" d="M0,14.345l.75-1.369a8.16,8.16,0,0,0,3.956,1.3,3.6,3.6,0,0,0,1.206-.19,2.431,2.431,0,0,0,.852-.489,2.633,2.633,0,0,0,.534-.7,2.9,2.9,0,0,0,.287-.771,3.78,3.78,0,0,0,.076-.756,3.1,3.1,0,0,0-.4-1.564,2.374,2.374,0,0,0-1.3-1.032,9.652,9.652,0,0,0-1.385-.354,11.879,11.879,0,0,1-1.43-.354,4.155,4.155,0,0,1-2.1-1.542,4.122,4.122,0,0,1-.728-2.4A4.024,4.024,0,0,1,1.5,1.2,4.291,4.291,0,0,1,4.706,0,9.539,9.539,0,0,1,8.759,1.087l-.652,1.4a8.142,8.142,0,0,0-3.4-.968,2.549,2.549,0,0,0-2.011.76A2.693,2.693,0,0,0,2.021,4.13a2.853,2.853,0,0,0,.424,1.532,2.389,2.389,0,0,0,1.315.99,11.955,11.955,0,0,0,1.374.337,10.15,10.15,0,0,1,1.5.39A4.086,4.086,0,0,1,8.672,8.961a4.355,4.355,0,0,1,.684,2.417,4.675,4.675,0,0,1-.3,1.669A4.436,4.436,0,0,1,8.2,14.454a3.9,3.9,0,0,1-1.467.984,5.411,5.411,0,0,1-2.026.363,7.2,7.2,0,0,1-2.392-.391A14.354,14.354,0,0,1,0,14.345" transform="translate(42.298 0.098)"/>
        <path id="Stroke_14" data-name="Stroke 14" class="cls-4" d="M0,14.345l.75-1.369a8.16,8.16,0,0,0,3.956,1.3,3.6,3.6,0,0,0,1.206-.19,2.431,2.431,0,0,0,.852-.489,2.633,2.633,0,0,0,.534-.7,2.9,2.9,0,0,0,.287-.771,3.78,3.78,0,0,0,.076-.756,3.1,3.1,0,0,0-.4-1.564,2.374,2.374,0,0,0-1.3-1.032,9.652,9.652,0,0,0-1.385-.354,11.879,11.879,0,0,1-1.43-.354,4.155,4.155,0,0,1-2.1-1.542,4.122,4.122,0,0,1-.728-2.4A4.024,4.024,0,0,1,1.5,1.2,4.291,4.291,0,0,1,4.706,0,9.539,9.539,0,0,1,8.759,1.087l-.652,1.4a8.142,8.142,0,0,0-3.4-.968,2.549,2.549,0,0,0-2.011.76A2.693,2.693,0,0,0,2.021,4.13a2.853,2.853,0,0,0,.424,1.532,2.389,2.389,0,0,0,1.315.99,11.955,11.955,0,0,0,1.374.337,10.15,10.15,0,0,1,1.5.39A4.086,4.086,0,0,1,8.672,8.961a4.355,4.355,0,0,1,.684,2.417,4.675,4.675,0,0,1-.3,1.669A4.436,4.436,0,0,1,8.2,14.454a3.9,3.9,0,0,1-1.467.984,5.411,5.411,0,0,1-2.026.363,7.2,7.2,0,0,1-2.392-.391A14.354,14.354,0,0,1,0,14.345Z" transform="translate(42.298 0.098)"/>
        <path id="Fill_16" data-name="Fill 16" class="cls-3" d="M0,14.345l.75-1.369a8.16,8.16,0,0,0,3.956,1.3,3.6,3.6,0,0,0,1.206-.19,2.431,2.431,0,0,0,.852-.489,2.651,2.651,0,0,0,.533-.7,2.866,2.866,0,0,0,.288-.771,3.78,3.78,0,0,0,.076-.756,3.1,3.1,0,0,0-.4-1.564,2.374,2.374,0,0,0-1.3-1.032,9.652,9.652,0,0,0-1.385-.354,11.879,11.879,0,0,1-1.43-.354,4.151,4.151,0,0,1-2.1-1.542,4.122,4.122,0,0,1-.728-2.4A4.024,4.024,0,0,1,1.5,1.2,4.289,4.289,0,0,1,4.706,0,9.539,9.539,0,0,1,8.759,1.087l-.652,1.4a8.142,8.142,0,0,0-3.4-.968,2.549,2.549,0,0,0-2.011.76A2.693,2.693,0,0,0,2.021,4.13a2.853,2.853,0,0,0,.424,1.532,2.389,2.389,0,0,0,1.315.99,11.955,11.955,0,0,0,1.374.337,10.15,10.15,0,0,1,1.5.39A4.086,4.086,0,0,1,8.672,8.961a4.355,4.355,0,0,1,.684,2.417,4.675,4.675,0,0,1-.3,1.669A4.436,4.436,0,0,1,8.2,14.454a3.9,3.9,0,0,1-1.467.984,5.411,5.411,0,0,1-2.026.363,7.2,7.2,0,0,1-2.392-.391A14.354,14.354,0,0,1,0,14.345" transform="translate(60.114 0.098)"/>
        <path id="Stroke_18" data-name="Stroke 18" class="cls-4" d="M0,14.345l.75-1.369a8.16,8.16,0,0,0,3.956,1.3,3.6,3.6,0,0,0,1.206-.19,2.431,2.431,0,0,0,.852-.489,2.651,2.651,0,0,0,.533-.7,2.866,2.866,0,0,0,.288-.771,3.78,3.78,0,0,0,.076-.756,3.1,3.1,0,0,0-.4-1.564,2.374,2.374,0,0,0-1.3-1.032,9.652,9.652,0,0,0-1.385-.354,11.879,11.879,0,0,1-1.43-.354,4.151,4.151,0,0,1-2.1-1.542,4.122,4.122,0,0,1-.728-2.4A4.024,4.024,0,0,1,1.5,1.2,4.289,4.289,0,0,1,4.706,0,9.539,9.539,0,0,1,8.759,1.087l-.652,1.4a8.142,8.142,0,0,0-3.4-.968,2.549,2.549,0,0,0-2.011.76A2.693,2.693,0,0,0,2.021,4.13a2.853,2.853,0,0,0,.424,1.532,2.389,2.389,0,0,0,1.315.99,11.955,11.955,0,0,0,1.374.337,10.15,10.15,0,0,1,1.5.39A4.086,4.086,0,0,1,8.672,8.961a4.355,4.355,0,0,1,.684,2.417,4.675,4.675,0,0,1-.3,1.669A4.436,4.436,0,0,1,8.2,14.454a3.9,3.9,0,0,1-1.467.984,5.411,5.411,0,0,1-2.026.363,7.2,7.2,0,0,1-2.392-.391A14.354,14.354,0,0,1,0,14.345Z" transform="translate(60.114 0.098)"/>
        <path id="Fill_20" data-name="Fill 20" class="cls-3" d="M0,0H1.7V13.866H7.824v1.522H0Z" transform="translate(79.19 0.306)"/>
        <path id="Stroke_22" data-name="Stroke 22" class="cls-4" d="M0,0H1.7V13.866H7.824v1.522H0Z" transform="translate(79.19 0.306)"/>
        <path id="Fill_24" data-name="Fill 24" class="cls-3" d="M1.771,15.388H0L5.216,0h1.63l5.216,15.386H10.291L9.085,11.67H2.977L1.771,15.387ZM6.031,2.293,3.477,10.149H8.585Z" transform="translate(94.996 0.306)"/>
        <path id="Stroke_26" data-name="Stroke 26" class="cls-4" d="M1.771,15.388H0L5.216,0h1.63l5.216,15.386H10.291L9.085,11.67H2.977L1.771,15.387ZM6.031,2.293,3.477,10.149H8.585Z" transform="translate(94.996 0.306)"/>
        <path id="Fill_28" data-name="Fill 28" class="cls-3" d="M8.455,0H10.15V15.388H8.444L1.7,3.043V15.388H0V0H1.706L8.455,12.345Z" transform="translate(116.125 0.306)"/>
        <path id="Stroke_30" data-name="Stroke 30" class="cls-4" d="M8.455,0H10.15V15.388H8.444L1.7,3.043V15.388H0V0H1.706L8.455,12.345Z" transform="translate(116.125 0.306)"/>
        <path id="Fill_32" data-name="Fill 32" class="cls-3" d="M3.9,15.387H0V0H3.9A9.447,9.447,0,0,1,6.389.25,4.059,4.059,0,0,1,8.1,1.233,5.123,5.123,0,0,1,9.215,2.825,6.786,6.786,0,0,1,9.66,4.438,12.994,12.994,0,0,1,9.834,6c.014.439.022,1.009.022,1.7s-.007,1.256-.022,1.695a13,13,0,0,1-.175,1.561,6.786,6.786,0,0,1-.445,1.613A5.123,5.123,0,0,1,8.1,14.154a4.07,4.07,0,0,1-1.712.983A9.511,9.511,0,0,1,3.9,15.387ZM1.695,1.521V13.866H3.9c.381,0,.667,0,.876-.012a5.24,5.24,0,0,0,.793-.1,2.579,2.579,0,0,0,.777-.266,2.76,2.76,0,0,0,.674-.544,4,4,0,0,0,.483-.647,3.192,3.192,0,0,0,.32-.814c.085-.32.151-.609.2-.858a8.536,8.536,0,0,0,.1-.974c.023-.437.035-.739.038-.951s.006-.537.006-1,0-.788-.006-1.005-.015-.515-.038-.951a8.5,8.5,0,0,0-.1-.973c-.045-.247-.111-.535-.2-.857A3.215,3.215,0,0,0,7.5,3.09a4.066,4.066,0,0,0-.483-.644A2.7,2.7,0,0,0,6.346,1.9a2.552,2.552,0,0,0-.777-.266,5.372,5.372,0,0,0-.793-.1c-.2-.007-.468-.011-.876-.011Z" transform="translate(136.865 0.306)"/>
        <path id="Stroke_34" data-name="Stroke 34" class="cls-4" d="M3.9,15.387H0V0H3.9A9.447,9.447,0,0,1,6.389.25,4.059,4.059,0,0,1,8.1,1.233,5.123,5.123,0,0,1,9.215,2.825,6.786,6.786,0,0,1,9.66,4.438,12.994,12.994,0,0,1,9.834,6c.014.439.022,1.009.022,1.7s-.007,1.256-.022,1.695a13,13,0,0,1-.175,1.561,6.786,6.786,0,0,1-.445,1.613A5.123,5.123,0,0,1,8.1,14.154a4.07,4.07,0,0,1-1.712.983A9.511,9.511,0,0,1,3.9,15.387ZM1.695,1.521V13.866H3.9c.381,0,.667,0,.876-.012a5.24,5.24,0,0,0,.793-.1,2.579,2.579,0,0,0,.777-.266,2.76,2.76,0,0,0,.674-.544,4,4,0,0,0,.483-.647,3.192,3.192,0,0,0,.32-.814c.085-.32.151-.609.2-.858a8.536,8.536,0,0,0,.1-.974c.023-.437.035-.739.038-.951s.006-.537.006-1,0-.788-.006-1.005-.015-.515-.038-.951a8.5,8.5,0,0,0-.1-.973c-.045-.247-.111-.535-.2-.857A3.215,3.215,0,0,0,7.5,3.09a4.066,4.066,0,0,0-.483-.644A2.7,2.7,0,0,0,6.346,1.9a2.552,2.552,0,0,0-.777-.266,5.372,5.372,0,0,0-.793-.1c-.2-.007-.468-.011-.876-.011Z" transform="translate(136.865 0.306)"/>
      </g>
    </g>
  </g>
</svg>
