<?xml version="1.0" encoding="iso-8859-1"?>
<!-- Generator: Adobe Illustrator 22.1.0, SVG Export Plug-In . SVG Version: 6.00 Build 0)  -->
<svg viewBox="0 0 96 28" height="46" data-reactid="176"><title data-reactid="177">Storm Logo</title><g fill="none" fill-rule="evenodd" data-reactid="178"><path d="M46.78 9.674l-3.317.934c-.116-.77-.747-2.078-2.755-2.078-1.378 0-2.266.864-2.266 1.775 0 .794.49 1.378 1.635 1.588l2.219.42c3.152.584 4.787 2.616 4.787 4.975 0 2.592-2.172 5.23-6.119 5.23-4.577 0-6.539-2.965-6.772-5.3l3.386-.818c.14 1.518 1.168 2.85 3.433 2.85 1.448 0 2.336-.701 2.336-1.729 0-.84-.678-1.448-1.775-1.658l-2.266-.42c-2.802-.538-4.507-2.406-4.507-4.858 0-3.13 2.756-5.325 5.932-5.325 4.134 0 5.698 2.476 6.049 4.414zm5.085-2.499v3.387h2.266v3.106h-2.266v4.344c0 .957.514 1.214 1.285 1.214.373 0 .724-.07.934-.117v2.943c-.14.07-.724.327-1.845.327-2.406 0-3.877-1.425-3.877-3.737V7.175h3.503zm9.286 12.074c1.354 0 2.615-.934 2.615-2.896 0-1.961-1.26-2.872-2.615-2.872-1.332 0-2.616.91-2.616 2.872 0 1.939 1.284 2.896 2.616 2.896zm0-9.038c3.48 0 6.165 2.546 6.165 6.142 0 3.597-2.686 6.166-6.165 6.166-3.457 0-6.166-2.569-6.166-6.166 0-3.596 2.71-6.142 6.166-6.142zm15.147.35v3.504a4.817 4.817 0 0 0-1.121-.117c-1.425 0-2.71.84-2.71 3.153v5.068h-3.55V10.562h3.434v1.564c.607-1.307 2.078-1.681 3.013-1.681.35 0 .7.047.934.117zm4.894 11.608h-3.55V10.562h3.387v1.33c.584-1.027 2.078-1.68 3.34-1.68 1.658 0 2.849.677 3.433 1.82.91-1.307 2.031-1.82 3.596-1.82 2.195 0 4.297 1.284 4.297 4.437v7.52h-3.433v-6.726c0-1.098-.584-1.962-1.845-1.962-1.26 0-1.938.957-1.938 1.985v6.703h-3.503v-6.726c0-1.098-.584-1.962-1.869-1.962-1.237 0-1.915.957-1.915 2.008v6.68z" fill="#2C253C" data-reactid="179"></path><path d="M11.165 27.235L22.568 11.24h-7.47L17.094.413c5.965 1.498 10.381 6.895 10.381 13.325 0 7.587-6.15 13.737-13.737 13.737-.88 0-1.74-.082-2.573-.24zm-.748-.164C4.434 25.586 0 20.18 0 13.738 0 6.15 6.15 0 13.738 0c.89 0 1.76.085 2.603.246L4.946 16.23h7.47l-2 10.841z" fill="#6B38DF" data-reactid="180"></path></g></svg>
