<svg version="1.1" id="Layer_1" xmlns="http://www.w3.org/2000/svg" x="0px" y="0px" viewBox="0 0 212.6 52.2"><path class="wordmark" d="M67.2,52.2V29H50.3v23.2h-9.7V20.4c0-0.1,0.1,0,0.2,0h36.1v31.9H67.2z"></path><path class="wordmark" d="M124.4,33.2c0.2,0.4,0.4,0.7,0.5,1.2c0.2,0.8,0.3,1.7,0.2,2.6c-1-0.4-2-0.9-2.9-1.6c-0.1-0.1-0.1-0.3-0.1-0.4c0-0.3,0.1-0.7,0.1-1c0.1-0.5,0.1-1.3,0.2-1.8C123.3,32.2,123.9,32.6,124.4,33.2M145.4,11.9l-39.7,16.5v-8h-9.7v31.9h9.7v-7.1c0-5.7,7.6-8.7,7.1-7.1c-0.4,1.9,0.2,3.8,1.6,5.2c0.4,0.3,2.4,1.7,3,2.1c1.2,0.8,2.2,1.9,3,3.1c0.3,0.5,1.8,3.1,2.2,3.5c0.1,0.2,0.4,0.3,0.6,0.3c3.2,0,10.1,0,10.1,0l-3-8.3c-1.5-3.7-2.4-7.7-2.7-11.7c0-0.6-0.4-1.2-1-1.4c-0.4-0.2-2.8-1-2.8-2.2L145.4,11.9z"></path><rect x="81.4" y="20.4" class="wordmark" width="10.1" height="31.9"></rect><polygon class="wordmark" points="86.5,0 84.5,6 78.2,6 83.3,9.7 81.4,15.7 86.5,12 91.6,15.7 89.6,9.7 94.7,6 88.4,6 "></polygon><path class="wordmark" d="M145.2,29.2h16.8v4.4h-16.8V29.2z M164.4,42.5h7.2V20.4h-36.1v31.9h9.7v-9.8h3.2l13.6,9.8h9.7v-4.5L164.4,42.5z"></path><polygon class="wordmark" points="26.7,20.4 26.6,43.4 9.7,43.4 9.7,20.4 0,20.4 0,52.2 36.2,52.2 36.2,20.4 "></polygon><path class="wordmark" d="M202.9,52.2V29H186v23.2h-9.7V20.4c0-0.1,0.1,0,0.2,0h36.1v31.9H202.9z"></path></svg>