<?xml version="1.0" standalone="no"?>
<!DOCTYPE svg PUBLIC "-//W3C//DTD SVG 20010904//EN"
 "http://www.w3.org/TR/2001/REC-SVG-20010904/DTD/svg10.dtd">
<svg version="1.0" xmlns="http://www.w3.org/2000/svg"
 width="260.000000pt" height="260.000000pt" viewBox="0 0 260.000000 260.000000"
 preserveAspectRatio="xMidYMid meet">
<metadata>
Created by potrace 1.11, written by Peter Selinger 2001-2013
</metadata>
<g transform="translate(0.000000,260.000000) scale(0.100000,-0.100000)"
fill="#000000" stroke="none">
<path d="M1087 2579 c-267 -65 -505 -275 -601 -530 -52 -140 -70 -324 -45
-465 69 -392 384 -682 782 -719 l77 -7 0 211 0 211 -27 0 c-43 0 -122 24 -181
54 -108 55 -195 162 -227 280 -70 259 99 520 368 566 133 24 282 -26 384 -127
69 -70 122 -176 130 -263 l6 -60 208 0 209 0 0 50 c0 28 -7 85 -16 127 -34
167 -103 300 -218 420 -125 132 -262 213 -428 253 -112 27 -310 27 -421 -1z"/>
<path d="M1290 1531 l0 -211 33 0 c46 0 124 -23 185 -54 213 -108 303 -372
200 -588 -66 -139 -189 -232 -340 -258 -133 -23 -281 25 -383 125 -70 68 -124
177 -132 265 l-6 60 -208 0 -209 0 0 -50 c0 -66 25 -187 56 -269 75 -200 248
-384 447 -476 116 -54 220 -75 367 -75 261 0 458 85 636 273 218 228 291 559
192 867 -106 331 -403 565 -757 596 l-81 7 0 -212z"/>
</g>
</svg>
